<svg width="19" height="21" viewBox="0 0 19 21" fill="none" xmlns="http://www.w3.org/2000/svg">
<path d="M2.38477 18.4305C2.38477 19.5335 3.28177 20.4305 4.38477 20.4305H14.3848C15.4878 20.4305 16.3848 19.5335 16.3848 18.4305V6.43054H18.3848V4.43054H14.3848V2.43054C14.3848 1.32754 13.4878 0.430542 12.3848 0.430542H6.38477C5.28177 0.430542 4.38477 1.32754 4.38477 2.43054V4.43054H0.384766V6.43054H2.38477V18.4305ZM6.38477 2.43054H12.3848V4.43054H6.38477V2.43054ZM5.38477 6.43054H14.3848L14.3858 18.4305H4.38477V6.43054H5.38477Z" fill="#494949"/>
<path d="M6.38477 8.43054H8.38477V16.4305H6.38477V8.43054ZM10.3848 8.43054H12.3848V16.4305H10.3848V8.43054Z" fill="#494949"/>
</svg>
