<svg width="23" height="23" viewBox="0 0 23 23" fill="none" xmlns="http://www.w3.org/2000/svg">
<path fill-rule="evenodd" clip-rule="evenodd" d="M4.54482 3.15186C4.28133 3.15186 4.02865 3.25721 3.84234 3.44475C3.65603 3.63228 3.55136 3.88664 3.55136 4.15186V18.1519C3.55136 18.4171 3.65603 18.6714 3.84234 18.859C4.02865 19.0465 4.28134 19.1519 4.54482 19.1519H8.51863C9.0673 19.1519 9.51208 19.5996 9.51208 20.1519C9.51208 20.7041 9.0673 21.1519 8.51863 21.1519H4.54482C3.75437 21.1519 2.99631 20.8358 2.43738 20.2732C1.87845 19.7106 1.56445 18.9475 1.56445 18.1519V4.15186C1.56445 3.35621 1.87845 2.59314 2.43738 2.03054C2.99631 1.46793 3.75437 1.15186 4.54482 1.15186H8.51863C9.0673 1.15186 9.51208 1.59957 9.51208 2.15186C9.51208 2.70414 9.0673 3.15186 8.51863 3.15186H4.54482Z" fill="#70191C" stroke="#70191C" stroke-width="2" stroke-linecap="round" stroke-linejoin="round"/>
<path fill-rule="evenodd" clip-rule="evenodd" d="M14.7695 5.44475C15.1575 5.05422 15.7865 5.05422 16.1744 5.44475L21.1417 10.4447C21.5297 10.8353 21.5297 11.4684 21.1417 11.859L16.1744 16.859C15.7865 17.2495 15.1575 17.2495 14.7695 16.859C14.3815 16.4684 14.3815 15.8353 14.7695 15.4447L19.0343 11.1519L14.7695 6.85896C14.3815 6.46844 14.3815 5.83527 14.7695 5.44475Z" fill="#70191C" stroke="#70191C" stroke-width="2" stroke-linecap="round" stroke-linejoin="round"/>
<path fill-rule="evenodd" clip-rule="evenodd" d="M7.52539 11.1519C7.52539 10.5996 7.97018 10.1519 8.51885 10.1519H20.4403C20.989 10.1519 21.4338 10.5996 21.4338 11.1519C21.4338 11.7041 20.989 12.1519 20.4403 12.1519H8.51885C7.97018 12.1519 7.52539 11.7041 7.52539 11.1519Z" fill="#70191C" stroke="#70191C" stroke-width="2" stroke-linecap="round" stroke-linejoin="round"/>
</svg>
