<svg width="20" height="20" viewBox="0 0 20 20" fill="none" xmlns="http://www.w3.org/2000/svg">
<path d="M13.8588 3.83837L15.9768 5.95537L13.8588 3.83837ZM15.2208 1.97337L9.49377 7.70037C9.19785 7.99587 8.99604 8.37235 8.91377 8.78237L8.38477 11.4304L11.0328 10.9004C11.4428 10.8184 11.8188 10.6174 12.1148 10.3214L17.8418 4.59437C18.0139 4.42227 18.1504 4.21796 18.2435 3.99311C18.3367 3.76825 18.3846 3.52725 18.3846 3.28387C18.3846 3.04049 18.3367 2.79949 18.2435 2.57463C18.1504 2.34978 18.0139 2.14547 17.8418 1.97337C17.6697 1.80127 17.4654 1.66476 17.2405 1.57162C17.0156 1.47848 16.7746 1.43054 16.5313 1.43054C16.2879 1.43054 16.0469 1.47848 15.822 1.57162C15.5972 1.66476 15.3929 1.80127 15.2208 1.97337V1.97337Z" stroke="#494949" stroke-width="2" stroke-linecap="round" stroke-linejoin="round"/>
<path d="M16.3848 13.4304V16.4304C16.3848 16.9609 16.1741 17.4696 15.799 17.8446C15.4239 18.2197 14.9152 18.4304 14.3848 18.4304H3.38477C2.85433 18.4304 2.34562 18.2197 1.97055 17.8446C1.59548 17.4696 1.38477 16.9609 1.38477 16.4304V5.43042C1.38477 4.89999 1.59548 4.39128 1.97055 4.01621C2.34562 3.64113 2.85433 3.43042 3.38477 3.43042H6.38477" stroke="#494949" stroke-width="2" stroke-linecap="round" stroke-linejoin="round"/>
</svg>
