<svg width="23" height="16" viewBox="0 0 23 16" fill="none" xmlns="http://www.w3.org/2000/svg">
<path d="M4.82274 0.329956H0.836285C0.470859 0.329956 0.171875 0.605158 0.171875 0.941515V14.3958C0.171875 14.7322 0.470859 15.0074 0.836285 15.0074H4.82274C5.18817 15.0074 5.48715 14.7322 5.48715 14.3958V0.941515C5.48715 0.605158 5.18817 0.329956 4.82274 0.329956ZM4.15833 3.99931H1.50069V2.77619H4.15833V3.99931Z" fill="#70191C"/>
<path d="M11.4673 0.329956H7.48082C7.11539 0.329956 6.81641 0.605158 6.81641 0.941515V14.3958C6.81641 14.7322 7.11539 15.0074 7.48082 15.0074H11.4673C11.8327 15.0074 12.1317 14.7322 12.1317 14.3958V0.941515C12.1317 0.605158 11.8327 0.329956 11.4673 0.329956ZM10.8029 3.99931H8.14523V2.77619H10.8029V3.99931Z" fill="#70191C"/>
<path d="M16.0575 1.2754L12.4976 2.92661C12.3408 2.99998 12.2218 3.12738 12.1666 3.28108C12.1113 3.43479 12.1243 3.60235 12.2026 3.74732L18.1823 14.6698C18.262 14.8141 18.4004 14.9236 18.5674 14.9744C18.7344 15.0253 18.9164 15.0134 19.0739 14.9413L22.6338 13.2901C22.7906 13.2167 22.9096 13.0893 22.9648 12.9356C23.0201 12.7819 23.0071 12.6143 22.9288 12.4694L16.9491 1.54693C16.8694 1.40261 16.731 1.29311 16.564 1.24226C16.397 1.19141 16.215 1.20332 16.0575 1.2754V1.2754Z" fill="#70191C"/>
<path d="M19.4401 14.3959C19.4401 14.5581 19.3701 14.7136 19.2455 14.8283C19.1209 14.943 18.952 15.0074 18.7757 15.0074C18.5995 15.0074 18.4305 14.943 18.3059 14.8283C18.1813 14.7136 18.1113 14.5581 18.1113 14.3959C18.1113 14.2337 18.1813 14.0781 18.3059 13.9634C18.4305 13.8487 18.5995 13.7843 18.7757 13.7843C18.952 13.7843 19.1209 13.8487 19.2455 13.9634C19.3701 14.0781 19.4401 14.2337 19.4401 14.3959Z" fill="#70191C"/>
</svg>
