<svg width="25" height="25" viewBox="0 0 25 25" fill="none" xmlns="http://www.w3.org/2000/svg">
<path d="M24.6328 12.7373C24.6328 15.9199 23.3685 18.9722 21.1181 21.2226C18.8677 23.473 15.8154 24.7373 12.6328 24.7373C9.45021 24.7373 6.39797 23.473 4.14753 21.2226C1.89709 18.9722 0.632813 15.9199 0.632812 12.7373C0.632813 9.55471 1.89709 6.50246 4.14753 4.25202C6.39797 2.00159 9.45021 0.737305 12.6328 0.737305C15.8154 0.737305 18.8677 2.00159 21.1181 4.25202C23.3685 6.50246 24.6328 9.55471 24.6328 12.7373V12.7373ZM18.6778 8.1923C18.5707 8.08553 18.4431 8.00146 18.3027 7.94513C18.1623 7.88879 18.012 7.86134 17.8608 7.86442C17.7096 7.8675 17.5605 7.90105 17.4225 7.96306C17.2846 8.02506 17.1605 8.11426 17.0578 8.2253L11.8483 14.8628L8.70881 11.7218C8.49555 11.5231 8.21348 11.4149 7.92203 11.42C7.63058 11.4252 7.3525 11.5433 7.14638 11.7494C6.94026 11.9555 6.82219 12.2336 6.81705 12.525C6.81191 12.8165 6.92009 13.0985 7.11881 13.3118L11.0878 17.2823C11.1947 17.389 11.3221 17.4731 11.4622 17.5296C11.6023 17.586 11.7524 17.6137 11.9034 17.6109C12.0545 17.6081 12.2034 17.5749 12.3414 17.5133C12.4793 17.4517 12.6034 17.3629 12.7063 17.2523L18.6943 9.7673C18.8985 9.55505 19.0112 9.27122 19.0084 8.97674C19.0056 8.68227 18.8875 8.40063 18.6793 8.1923H18.6778Z" fill="white"/>
<path d="M24.6328 12.7373C24.6328 15.9199 23.3685 18.9722 21.1181 21.2226C18.8677 23.473 15.8154 24.7373 12.6328 24.7373C9.45021 24.7373 6.39797 23.473 4.14753 21.2226C1.89709 18.9722 0.632813 15.9199 0.632812 12.7373C0.632813 9.55471 1.89709 6.50246 4.14753 4.25202C6.39797 2.00159 9.45021 0.737305 12.6328 0.737305C15.8154 0.737305 18.8677 2.00159 21.1181 4.25202C23.3685 6.50246 24.6328 9.55471 24.6328 12.7373V12.7373ZM18.6778 8.1923C18.5707 8.08553 18.4431 8.00146 18.3027 7.94513C18.1623 7.88879 18.012 7.86134 17.8608 7.86442C17.7096 7.8675 17.5605 7.90105 17.4225 7.96306C17.2846 8.02506 17.1605 8.11426 17.0578 8.2253L11.8483 14.8628L8.70881 11.7218C8.49555 11.5231 8.21348 11.4149 7.92203 11.42C7.63058 11.4252 7.3525 11.5433 7.14638 11.7494C6.94026 11.9555 6.82219 12.2336 6.81705 12.525C6.81191 12.8165 6.92009 13.0985 7.11881 13.3118L11.0878 17.2823C11.1947 17.389 11.3221 17.4731 11.4622 17.5296C11.6023 17.586 11.7524 17.6137 11.9034 17.6109C12.0545 17.6081 12.2034 17.5749 12.3414 17.5133C12.4793 17.4517 12.6034 17.3629 12.7063 17.2523L18.6943 9.7673C18.8985 9.55505 19.0112 9.27122 19.0084 8.97674C19.0056 8.68227 18.8875 8.40063 18.6793 8.1923H18.6778Z" fill="url(#paint0_linear)"/>
<defs>
<linearGradient id="paint0_linear" x1="12.6328" y1="0.737305" x2="12.6328" y2="24.7373" gradientUnits="userSpaceOnUse">
<stop stop-color="white"/>
<stop offset="1" stop-color="white" stop-opacity="0"/>
</linearGradient>
</defs>
</svg>
