<svg width="21" height="21" viewBox="0 0 21 21" fill="none" xmlns="http://www.w3.org/2000/svg">
<path d="M11.6973 6.17993C11.6973 5.45766 11.555 4.74246 11.2786 4.07517C11.0022 3.40788 10.5971 2.80157 10.0864 2.29084C9.57563 1.78012 8.96932 1.375 8.30202 1.09859C7.63473 0.822193 6.91954 0.679932 6.19727 0.679932C5.475 0.679932 4.7598 0.822193 4.09251 1.09859C3.42522 1.375 2.8189 1.78012 2.30818 2.29084C1.79746 2.80157 1.39233 3.40788 1.11593 4.07517C0.839527 4.74246 0.697266 5.45766 0.697266 6.17993C0.697266 7.63862 1.27673 9.03757 2.30818 10.069C3.33963 11.1005 4.73857 11.6799 6.19727 11.6799C7.65596 11.6799 9.0549 11.1005 10.0864 10.069C11.1178 9.03757 11.6973 7.63862 11.6973 6.17993V6.17993ZM6.69727 6.67993L6.69827 9.18393C6.69827 9.31654 6.64559 9.44372 6.55182 9.53749C6.45805 9.63125 6.33087 9.68393 6.19827 9.68393C6.06566 9.68393 5.93848 9.63125 5.84471 9.53749C5.75094 9.44372 5.69827 9.31654 5.69827 9.18393V6.67993H3.19327C3.06066 6.67993 2.93348 6.62725 2.83971 6.53348C2.74594 6.43972 2.69327 6.31254 2.69327 6.17993C2.69327 6.04732 2.74594 5.92015 2.83971 5.82638C2.93348 5.73261 3.06066 5.67993 3.19327 5.67993H5.69727V3.17993C5.69727 3.04732 5.74994 2.92015 5.84371 2.82638C5.93748 2.73261 6.06466 2.67993 6.19727 2.67993C6.32987 2.67993 6.45705 2.73261 6.55082 2.82638C6.64459 2.92015 6.69727 3.04732 6.69727 3.17993V5.67993H9.20027C9.33287 5.67993 9.46005 5.73261 9.55382 5.82638C9.64759 5.92015 9.70027 6.04732 9.70027 6.17993C9.70027 6.31254 9.64759 6.43972 9.55382 6.53348C9.46005 6.62725 9.33287 6.67993 9.20027 6.67993H6.69827H6.69727Z" fill="#70191C"/>
<path d="M17.4473 4.17993H12.3843C12.2133 3.65158 11.975 3.14744 11.6753 2.67993H17.4473C18.3092 2.67993 19.1359 3.02234 19.7454 3.63183C20.3549 4.24133 20.6973 5.06798 20.6973 5.92993V12.8089C20.697 13.4053 20.46 13.9772 20.0383 14.3989L14.4173 20.0209C14.2083 20.2299 13.9603 20.3956 13.6873 20.5087C13.4143 20.6217 13.1217 20.6799 12.8263 20.6799H5.94727C5.08531 20.6799 4.25866 20.3375 3.64917 19.728C3.03968 19.1185 2.69727 18.2919 2.69727 17.4299V11.6579C3.16027 11.9549 3.66427 12.1939 4.19727 12.3669V17.4299C4.19727 18.3959 4.98127 19.1799 5.94727 19.1799H12.6973V15.9299C12.6972 15.0998 13.0148 14.3011 13.5849 13.6977C14.1551 13.0943 14.9345 12.7319 15.7633 12.6849L15.9473 12.6799H19.1973V5.92993C19.1973 5.4658 19.0129 5.02068 18.6847 4.69249C18.3565 4.36431 17.9114 4.17993 17.4473 4.17993ZM18.1363 14.1799H15.9473C15.5079 14.18 15.0847 14.3453 14.7616 14.643C14.4385 14.9407 14.2392 15.3491 14.2033 15.7869L14.1973 15.9299V18.1189L18.1363 14.1799Z" fill="#70191C"/>
</svg>
