<svg width="24" height="27" viewBox="0 0 24 27" fill="none" xmlns="http://www.w3.org/2000/svg">
<path d="M23.335 5.90126C23.2488 5.83361 23.1454 5.79015 23.0358 5.77551C22.9263 5.76088 22.8148 5.77563 22.7131 5.81818L12.8165 10.0052C12.3862 10.1884 11.8473 10.2755 11.2941 10.2755C10.5227 10.2785 9.72457 10.1033 9.16827 9.86507C8.99875 9.79531 8.83733 9.70806 8.68676 9.60482C8.72774 9.5848 8.77896 9.56278 8.83531 9.54076L17.8365 5.7331L19.1786 6.29364V4.65506C19.1806 4.53821 19.1556 4.42242 19.1054 4.31635C19.0552 4.21027 18.9811 4.11665 18.8887 4.04247C18.8029 3.9749 18.6998 3.93146 18.5906 3.91682C18.4814 3.90218 18.3702 3.9169 18.2689 3.95939L8.37224 8.14642C8.06694 8.26653 7.80467 8.41468 7.58338 8.62988C7.32712 8.87688 7.18159 9.2131 7.1787 9.56478C7.1787 9.57479 7.18177 9.59181 7.18177 9.59181V24.336L7.17972 24.356C7.17972 24.36 7.1828 24.362 7.1828 24.366V24.382H7.18485C7.20534 24.8975 7.47171 25.2258 7.72578 25.4581C8.52489 26.1467 9.86698 26.5321 11.2951 26.5521C11.9713 26.5521 12.6577 26.452 13.2929 26.1858L23.1926 21.9977C23.4538 21.8876 23.6249 21.6144 23.6249 21.3051V6.51385C23.6265 6.39707 23.6013 6.28142 23.5511 6.17541C23.5009 6.0694 23.4271 5.97572 23.335 5.90126V5.90126ZM17.0579 3.09856C17.0405 2.87835 16.9473 2.66815 16.7813 2.54203C16.6951 2.47438 16.5917 2.43091 16.4821 2.41628C16.3726 2.40164 16.2611 2.41639 16.1594 2.45895L6.2628 6.64397C5.83251 6.82615 5.2926 6.91423 4.7404 6.91423C3.96895 6.91624 3.17087 6.74107 2.61457 6.50184C2.44487 6.43324 2.2834 6.34664 2.13306 6.24359C2.17404 6.22357 2.22526 6.20155 2.28161 6.17953L11.2839 2.37186L12.6259 2.9324V1.29583C12.6278 1.17891 12.6026 1.06309 12.5522 0.957024C12.5018 0.850954 12.4276 0.757366 12.335 0.683241C12.2489 0.615681 12.1457 0.572259 12.0364 0.557624C11.927 0.542989 11.8156 0.557693 11.7141 0.600161L1.81751 4.78819C1.51221 4.9083 1.25097 5.05545 1.02865 5.27165C0.772775 5.51882 0.627621 5.85501 0.625 6.20655C0.625 6.21857 0.628073 6.23458 0.628073 6.23458V21.0258H0.630123C0.650613 21.5413 0.916981 21.8696 1.17106 22.1018C1.97016 22.7905 3.31225 23.1749 4.74142 23.1949C5.12954 23.1927 5.51641 23.1517 5.89603 23.0728V9.59081C5.88579 8.89013 6.17264 8.21749 6.6767 7.73302C7.02591 7.40206 7.44082 7.14452 7.89585 6.97629L17.0579 3.09856V3.09856Z" fill="#70191C"/>
</svg>
