<svg width="19" height="23" viewBox="0 0 19 23" fill="none" xmlns="http://www.w3.org/2000/svg">
<path d="M17.9641 4.76224L14.0313 1.15787C13.6094 0.771222 13.0375 0.552124 12.4422 0.552124H2.875C1.63281 0.55642 0.625 1.48007 0.625 2.61852V20.49C0.625 21.6285 1.63281 22.5521 2.875 22.5521H16.375C17.6172 22.5521 18.625 21.6285 18.625 20.49V6.22289C18.625 5.6773 18.3859 5.14888 17.9641 4.76224ZM16.1922 6.05535H12.625V2.78606L16.1922 6.05535ZM2.875 20.49V2.61852H10.375V7.0864C10.375 7.65777 10.8766 8.11744 11.5 8.11744H16.375V20.49H2.875Z" fill="#70191C"/>
</svg>
