<svg width="19" height="21" viewBox="0 0 19 21" fill="none" xmlns="http://www.w3.org/2000/svg">
<path d="M17.1777 20.014H5.92773C5.53003 20.0136 5.14873 19.8555 4.86751 19.5743C4.58629 19.293 4.42813 18.9117 4.42773 18.514V14.014H5.92773V18.514H17.1777V2.01404H10.4277V0.514038H17.1777C17.5754 0.514435 17.9567 0.672598 18.238 0.953817C18.5192 1.23504 18.6773 1.61634 18.6777 2.01404V18.514C18.6773 18.9117 18.5192 19.293 18.238 19.5743C17.9567 19.8555 17.5754 20.0136 17.1777 20.014Z" fill="#70191C"/>
<path d="M10.4277 9.51404H15.6777V11.014H10.4277V9.51404Z" fill="#70191C"/>
<path d="M9.67773 9.51404H15.6777V11.014H9.67773V9.51404Z" fill="#70191C"/>
<path d="M8.92773 9.51404H15.6777V11.014H8.92773V9.51404Z" fill="#70191C"/>
<path d="M4.42773 16.264C3.43348 16.263 2.48023 15.8676 1.77718 15.1646C1.07413 14.4615 0.678727 13.5083 0.677734 12.514V4.26404H2.17773V12.514C2.17773 13.1108 2.41479 13.6831 2.83674 14.105C3.2587 14.527 3.831 14.764 4.42773 14.764C5.02447 14.764 5.59677 14.527 6.01872 14.105C6.44068 13.6831 6.67773 13.1108 6.67773 12.514V5.76404C6.67773 5.56513 6.59872 5.37436 6.45806 5.23371C6.31741 5.09306 6.12665 5.01404 5.92773 5.01404C5.72882 5.01404 5.53806 5.09306 5.3974 5.23371C5.25675 5.37436 5.17773 5.56513 5.17773 5.76404V13.264H3.67773V5.76404C3.67773 5.1673 3.91479 4.595 4.33674 4.17305C4.7587 3.75109 5.331 3.51404 5.92773 3.51404C6.52447 3.51404 7.09677 3.75109 7.51872 4.17305C7.94068 4.595 8.17773 5.1673 8.17773 5.76404V12.514C8.17674 13.5083 7.78133 14.4615 7.07829 15.1646C6.37524 15.8676 5.42199 16.263 4.42773 16.264Z" fill="#70191C"/>
</svg>
