<svg width="22" height="16" viewBox="0 0 22 16" fill="none" xmlns="http://www.w3.org/2000/svg">
<path d="M20.0917 0.514038H1.26505C0.932648 0.514038 0.613857 0.646085 0.378812 0.881131C0.143766 1.11618 0.0117188 1.43497 0.0117188 1.76737V13.9274C0.0117188 14.2598 0.143766 14.5786 0.378812 14.8136C0.613857 15.0487 0.932648 15.1807 1.26505 15.1807H20.0917C20.4241 15.1807 20.7429 15.0487 20.978 14.8136C21.213 14.5786 21.3451 14.2598 21.3451 13.9274V1.76737C21.3451 1.43497 21.213 1.11618 20.978 0.881131C20.7429 0.646085 20.4241 0.514038 20.0917 0.514038V0.514038ZM14.7984 8.4007L8.28505 11.3074C8.18363 11.353 8.07242 11.3725 7.96154 11.3641C7.85066 11.3557 7.74364 11.3198 7.65021 11.2595C7.55678 11.1992 7.47992 11.1164 7.42662 11.0189C7.37333 10.9213 7.34528 10.8119 7.34505 10.7007V4.88737C7.34528 4.77618 7.37333 4.66681 7.42662 4.56922C7.47992 4.47163 7.55678 4.38892 7.65021 4.32862C7.74364 4.26832 7.85066 4.23235 7.96154 4.22399C8.07242 4.21562 8.18363 4.23511 8.28505 4.2807L14.7984 7.1807C14.9167 7.23287 15.0173 7.3183 15.0879 7.42661C15.1585 7.53491 15.1961 7.66142 15.1961 7.79071C15.1961 7.92 15.1585 8.0465 15.0879 8.1548C15.0173 8.26311 14.9167 8.34854 14.7984 8.4007V8.4007Z" fill="#70191C"/>
</svg>
