<svg width="19" height="22" viewBox="0 0 19 22" fill="none" xmlns="http://www.w3.org/2000/svg">
<path d="M0.212891 13.2814V17.1953C0.212891 19.3572 4.30169 21.1093 9.34551 21.1093C14.3893 21.1093 18.4781 19.3572 18.4781 17.1953V13.2814C18.4781 15.4432 14.3893 17.1953 9.34551 17.1953C4.30169 17.1953 0.212891 15.4432 0.212891 13.2814Z" fill="#70191C"/>
<path d="M0.212891 6.75806V10.672C0.212891 12.8339 4.30169 14.586 9.34551 14.586C14.3893 14.586 18.4781 12.8339 18.4781 10.672V6.75806C18.4781 8.91988 14.3893 10.672 9.34551 10.672C4.30169 10.672 0.212891 8.91988 0.212891 6.75806Z" fill="#70191C"/>
<path d="M18.4781 4.14872C18.4781 6.31054 14.3893 8.0627 9.34551 8.0627C4.30169 8.0627 0.212891 6.31054 0.212891 4.14872C0.212891 1.9869 4.30169 0.234741 9.34551 0.234741C14.3893 0.234741 18.4781 1.9869 18.4781 4.14872Z" fill="#70191C"/>
</svg>
