<svg width="24" height="24" viewBox="0 0 24 24" fill="none" xmlns="http://www.w3.org/2000/svg">
<path d="M20.2115 3.39815L23.8355 16.9208C23.9601 17.386 23.9919 17.8711 23.929 18.3485C23.8661 18.8259 23.7098 19.2863 23.4689 19.7033C23.2281 20.1203 22.9075 20.4858 22.5255 20.7789C22.1434 21.072 21.7073 21.2869 21.2422 21.4115L12.8728 23.6555C12.4075 23.7805 11.9221 23.8126 11.4444 23.7499C10.9667 23.6871 10.506 23.5309 10.0887 23.2901C9.6714 23.0492 9.30566 22.7285 9.01238 22.3462C8.71911 21.9639 8.50405 21.5276 8.37951 21.0621L4.75684 7.53948C4.63223 7.07434 4.60047 6.58921 4.66337 6.11179C4.72626 5.63437 4.88258 5.17402 5.1234 4.75701C5.36421 4.34001 5.68481 3.97453 6.06688 3.68143C6.44895 3.38834 6.88502 3.17337 7.35017 3.04881L15.7208 0.804814C16.186 0.680209 16.6711 0.648447 17.1485 0.711341C17.6259 0.774235 18.0863 0.930553 18.5033 1.17137C18.9203 1.41219 19.2858 1.73278 19.5789 2.11486C19.872 2.49693 20.0869 2.93299 20.2115 3.39815V3.39815ZM11.6275 7.42481C11.5829 7.25495 11.5052 7.09558 11.3988 6.95584C11.2924 6.81611 11.1595 6.69876 11.0076 6.61055C10.8558 6.52234 10.688 6.46499 10.5139 6.44181C10.3398 6.41863 10.1629 6.43006 9.99323 6.47546C9.82358 6.52086 9.66457 6.59932 9.52533 6.70635C9.38609 6.81338 9.26937 6.94686 9.18186 7.09912C9.09436 7.25139 9.0378 7.41944 9.01543 7.59363C8.99306 7.76782 9.00532 7.94471 9.05151 8.11415C9.14309 8.45575 9.36663 8.74697 9.67294 8.92376C9.97925 9.10054 10.3432 9.1484 10.6848 9.05681C11.0264 8.96523 11.3177 8.74169 11.4944 8.43538C11.6712 8.12907 11.7191 7.76508 11.6275 7.42348V7.42481ZM4.74351 12.6461L7.09284 21.4061C7.32366 22.2746 7.78533 23.0643 8.42884 23.6915L7.83817 23.6595C6.86715 23.6085 5.95616 23.1739 5.30555 22.4513C4.65494 21.7286 4.318 20.7772 4.36884 19.8061L4.74351 12.6461V12.6461ZM3.51017 10.6755L3.03684 19.7368C2.98751 20.6675 3.19684 21.5528 3.60217 22.3235L3.05017 22.1088C2.6006 21.9363 2.18941 21.6769 1.8401 21.3454C1.49078 21.014 1.21017 20.6169 1.0143 20.177C0.818429 19.7371 0.711127 19.2629 0.698522 18.7816C0.685917 18.3002 0.768257 17.821 0.940839 17.3715L3.51017 10.6755V10.6755Z" fill="#70191C"/>
</svg>
