<svg width="23" height="23" viewBox="0 0 23 23" fill="none" xmlns="http://www.w3.org/2000/svg">
<path d="M4.43571 15.5224L4.4334 15.6764L4.51815 15.805C5.28116 16.9628 6.3172 17.9129 7.53413 18.5703C8.75108 19.2277 10.111 19.5719 11.4925 19.5719C12.874 19.5719 14.2338 19.2277 15.4508 18.5703C16.6677 17.9129 17.7037 16.9628 18.4667 15.805L18.5515 15.6764L18.5492 15.5224C18.5383 14.7963 18.1672 14.191 17.6595 13.713C17.1539 13.237 16.4803 12.8537 15.7679 12.5541C14.3454 11.9558 12.6487 11.6419 11.4925 11.6419C10.3309 11.6419 8.63408 11.9558 7.21273 12.5542C6.50097 12.8538 5.82826 13.2372 5.32354 13.7133C4.81657 14.1915 4.44658 14.7967 4.43571 15.5224ZM1.06445 11.1519C1.06445 5.3529 5.73943 0.651855 11.4925 0.651855C17.2455 0.651855 21.9204 5.3529 21.9204 11.1519C21.9204 16.9508 17.2455 21.6519 11.4925 21.6519C5.73943 21.6519 1.06445 16.9508 1.06445 11.1519ZM15.2709 6.75186C15.2709 4.65281 13.5857 2.95186 11.4925 2.95186C9.39917 2.95186 7.71405 4.65281 7.71405 6.75186C7.71405 8.8509 9.39917 10.5519 11.4925 10.5519C13.5857 10.5519 15.2709 8.8509 15.2709 6.75186Z" fill="#70191C" stroke="#70191C"/>
</svg>
