<svg width="24" height="25" viewBox="0 0 24 25" fill="none" xmlns="http://www.w3.org/2000/svg">
<path d="M8.17773 0.514038H20.1777C20.9734 0.514038 21.7364 0.830109 22.2991 1.39272C22.8617 1.95533 23.1777 2.71839 23.1777 3.51404V18.514C23.1777 19.3097 22.8617 20.0727 22.2991 20.6354C21.7364 21.198 20.9734 21.514 20.1777 21.514C20.1777 22.3097 19.8617 23.0727 19.2991 23.6354C18.7364 24.198 17.9734 24.514 17.1777 24.514H5.17773C4.38208 24.514 3.61902 24.198 3.05641 23.6354C2.4938 23.0727 2.17773 22.3097 2.17773 21.514H3.67773C3.67773 21.9119 3.83577 22.2934 4.11707 22.5747C4.39838 22.856 4.77991 23.014 5.17773 23.014H17.1777C17.5756 23.014 17.9571 22.856 18.2384 22.5747C18.5197 22.2934 18.6777 21.9119 18.6777 21.514V6.51404C18.6777 6.11621 18.5197 5.73468 18.2384 5.45338C17.9571 5.17207 17.5756 5.01404 17.1777 5.01404H5.17773C4.77991 5.01404 4.39838 5.17207 4.11707 5.45338C3.83577 5.73468 3.67773 6.11621 3.67773 6.51404H2.17773C2.17773 5.71839 2.4938 4.95533 3.05641 4.39272C3.61902 3.83011 4.38208 3.51404 5.17773 3.51404H17.1777C17.9734 3.51404 18.7364 3.83011 19.2991 4.39272C19.8617 4.95533 20.1777 5.71839 20.1777 6.51404V20.014C20.5756 20.014 20.9571 19.856 21.2384 19.5747C21.5197 19.2934 21.6777 18.9119 21.6777 18.514V3.51404C21.6777 3.11621 21.5197 2.73468 21.2384 2.45338C20.9571 2.17207 20.5756 2.01404 20.1777 2.01404H8.17773C7.77991 2.01404 7.39838 2.17207 7.11707 2.45338C6.83577 2.73468 6.67773 3.11621 6.67773 3.51404H5.17773C5.17773 2.71839 5.4938 1.95533 6.05641 1.39272C6.61902 0.830109 7.38208 0.514038 8.17773 0.514038V0.514038Z" fill="#70191C"/>
<path d="M2.17773 8.01404V7.26404C2.17773 7.06513 2.25675 6.87436 2.3974 6.73371C2.53806 6.59306 2.72882 6.51404 2.92773 6.51404C3.12665 6.51404 3.31741 6.59306 3.45806 6.73371C3.59872 6.87436 3.67773 7.06513 3.67773 7.26404V8.01404H4.42773C4.62665 8.01404 4.81741 8.09306 4.95806 8.23371C5.09872 8.37436 5.17773 8.56513 5.17773 8.76404C5.17773 8.96295 5.09872 9.15372 4.95806 9.29437C4.81741 9.43502 4.62665 9.51404 4.42773 9.51404H1.42773C1.22882 9.51404 1.03806 9.43502 0.897404 9.29437C0.756752 9.15372 0.677734 8.96295 0.677734 8.76404C0.677734 8.56513 0.756752 8.37436 0.897404 8.23371C1.03806 8.09306 1.22882 8.01404 1.42773 8.01404H2.17773ZM2.17773 12.514V11.764C2.17773 11.5651 2.25675 11.3744 2.3974 11.2337C2.53806 11.0931 2.72882 11.014 2.92773 11.014C3.12665 11.014 3.31741 11.0931 3.45806 11.2337C3.59872 11.3744 3.67773 11.5651 3.67773 11.764V12.514H4.42773C4.62665 12.514 4.81741 12.5931 4.95806 12.7337C5.09872 12.8744 5.17773 13.0651 5.17773 13.264C5.17773 13.463 5.09872 13.6537 4.95806 13.7944C4.81741 13.935 4.62665 14.014 4.42773 14.014H1.42773C1.22882 14.014 1.03806 13.935 0.897404 13.7944C0.756752 13.6537 0.677734 13.463 0.677734 13.264C0.677734 13.0651 0.756752 12.8744 0.897404 12.7337C1.03806 12.5931 1.22882 12.514 1.42773 12.514H2.17773ZM2.17773 16.264V17.014H1.42773C1.22882 17.014 1.03806 17.0931 0.897404 17.2337C0.756752 17.3744 0.677734 17.5651 0.677734 17.764C0.677734 17.963 0.756752 18.1537 0.897404 18.2944C1.03806 18.435 1.22882 18.514 1.42773 18.514H4.42773C4.62665 18.514 4.81741 18.435 4.95806 18.2944C5.09872 18.1537 5.17773 17.963 5.17773 17.764C5.17773 17.5651 5.09872 17.3744 4.95806 17.2337C4.81741 17.0931 4.62665 17.014 4.42773 17.014H3.67773V16.264C3.67773 16.0651 3.59872 15.8744 3.45806 15.7337C3.31741 15.5931 3.12665 15.514 2.92773 15.514C2.72882 15.514 2.53806 15.5931 2.3974 15.7337C2.25675 15.8744 2.17773 16.0651 2.17773 16.264V16.264Z" fill="#70191C"/>
</svg>
