<svg width="23" height="23" viewBox="0 0 23 23" fill="none" xmlns="http://www.w3.org/2000/svg">
<path d="M13.4859 2.42086C13.4859 1.71986 12.9216 1.15186 12.2252 1.15186H10.7738C10.0764 1.15186 9.51209 1.71986 9.51209 2.42086C9.51209 2.99886 9.11868 3.49486 8.58321 3.70686C8.49876 3.74086 8.41432 3.77686 8.33186 3.81286C7.80434 4.04286 7.17747 3.97286 6.77015 3.56386C6.53375 3.32607 6.21323 3.19249 5.87903 3.19249C5.54482 3.19249 5.2243 3.32607 4.9879 3.56386L3.96067 4.59786C3.72443 4.83581 3.59173 5.15845 3.59173 5.49486C3.59173 5.83126 3.72443 6.1539 3.96067 6.39186C4.36798 6.80186 4.43752 7.43186 4.20704 7.96386C4.17083 8.04758 4.13605 8.13192 4.10273 8.21686C3.89212 8.75586 3.39936 9.15186 2.82515 9.15186C2.12874 9.15186 1.56445 9.71986 1.56445 10.4209V11.8829C1.56445 12.5839 2.12874 13.1519 2.82515 13.1519C3.39936 13.1519 3.89212 13.5479 4.10273 14.0869C4.13651 14.1719 4.17227 14.2569 4.20704 14.3399C4.43653 14.8709 4.36699 15.5019 3.96067 15.9119C3.72443 16.1498 3.59173 16.4725 3.59173 16.8089C3.59173 17.1453 3.72443 17.4679 3.96067 17.7059L4.9879 18.7399C5.2243 18.9776 5.54482 19.1112 5.87903 19.1112C6.21323 19.1112 6.53375 18.9776 6.77015 18.7399C7.17747 18.3299 7.80335 18.2599 8.33186 18.4909C8.41432 18.5279 8.49876 18.5629 8.58321 18.5969C9.11868 18.8089 9.51209 19.3049 9.51209 19.8829C9.51209 20.5839 10.0764 21.1519 10.7728 21.1519H12.2252C12.9216 21.1519 13.4859 20.5839 13.4859 19.8829C13.4859 19.3049 13.8793 18.8089 14.4148 18.5959C14.4992 18.5629 14.5837 18.5279 14.6661 18.4919C15.1937 18.2599 15.8205 18.3309 16.2268 18.7399C16.3439 18.8577 16.4829 18.9513 16.6359 19.0151C16.7889 19.0789 16.9529 19.1117 17.1185 19.1117C17.2841 19.1117 17.448 19.0789 17.601 19.0151C17.754 18.9513 17.893 18.8577 18.0101 18.7399L19.0373 17.7059C19.2736 17.4679 19.4063 17.1453 19.4063 16.8089C19.4063 16.4725 19.2736 16.1498 19.0373 15.9119C18.63 15.5019 18.5605 14.8719 18.79 14.3399C18.8267 14.2569 18.8615 14.1719 18.8953 14.0869C19.1059 13.5479 19.5986 13.1519 20.1728 13.1519C20.8693 13.1519 21.4335 12.5839 21.4335 11.8829V10.4219C21.4335 9.72086 20.8693 9.15286 20.1728 9.15286C19.5986 9.15286 19.1059 8.75686 18.8943 8.21786C18.861 8.13291 18.8262 8.04856 18.79 7.96486C18.5615 7.43386 18.631 6.80286 19.0373 6.39286C19.2736 6.1549 19.4063 5.83226 19.4063 5.49586C19.4063 5.15945 19.2736 4.83681 19.0373 4.59886L18.0101 3.56486C17.7737 3.32707 17.4532 3.19349 17.119 3.19349C16.7848 3.19349 16.4642 3.32707 16.2278 3.56486C15.8205 3.97486 15.1946 4.04486 14.6661 3.81386C14.583 3.77706 14.4992 3.74172 14.4148 3.70786C13.8793 3.49486 13.4859 2.99786 13.4859 2.42086Z" stroke="#70191C" stroke-width="2"/>
<path d="M15.473 11.1519C15.473 12.2127 15.0544 13.2301 14.3091 13.9803C13.5639 14.7304 12.5531 15.1519 11.4992 15.1519C10.4453 15.1519 9.43453 14.7304 8.6893 13.9803C7.94406 13.2301 7.52539 12.2127 7.52539 11.1519C7.52539 10.091 7.94406 9.07357 8.6893 8.32343C9.43453 7.57328 10.4453 7.15186 11.4992 7.15186C12.5531 7.15186 13.5639 7.57328 14.3091 8.32343C15.0544 9.07357 15.473 10.091 15.473 11.1519V11.1519Z" stroke="#70191C" stroke-width="2"/>
</svg>
