<svg width="25" height="18" viewBox="0 0 25 18" fill="none" xmlns="http://www.w3.org/2000/svg">
<path d="M4.67773 14.6107V10.4409L9.90681 13.3179C10.6977 13.7531 11.5937 13.9821 12.5057 13.9821C13.4177 13.9821 14.3137 13.7531 15.1046 13.3179L20.3336 10.4422V14.6107C20.3338 14.6928 20.3171 14.7742 20.2844 14.8501C20.2517 14.9261 20.2037 14.9951 20.1432 15.0533L20.1406 15.0545L20.1379 15.0583L20.1288 15.0658L20.0988 15.0933L19.9944 15.1858C19.9031 15.2621 19.7726 15.3696 19.6017 15.4959C19.1331 15.8407 18.6352 16.1473 18.1131 16.4123C16.3865 17.2901 14.4602 17.7454 12.5057 17.7377C10.5512 17.7454 8.62492 17.2901 6.89826 16.4123C6.37665 16.1472 5.87913 15.8407 5.41095 15.4959C5.2388 15.3687 5.07251 15.2344 4.91257 15.0933L4.88257 15.0658C4.81863 15.0067 4.76759 14.9361 4.73243 14.8579C4.69726 14.7798 4.67867 14.6958 4.67773 14.6107V14.6107Z" fill="#70191C"/>
<path d="M23.9201 7.02628L14.4548 12.2338C13.8616 12.5602 13.1896 12.732 12.5056 12.732C11.8216 12.732 11.1496 12.5602 10.5564 12.2338L2.06833 7.5639V13.3603C2.06833 13.5261 1.9996 13.6851 1.87727 13.8023C1.75493 13.9196 1.58901 13.9854 1.416 13.9854C1.24299 13.9854 1.07707 13.9196 0.954735 13.8023C0.832399 13.6851 0.763672 13.5261 0.763672 13.3603V6.48365C0.763607 6.37093 0.79534 6.2603 0.855513 6.16346C0.915686 6.06662 1.00206 5.98717 1.10549 5.93351L10.5564 0.733522C11.1495 0.406726 11.8215 0.234741 12.5056 0.234741C13.1897 0.234741 13.8618 0.406726 14.4548 0.733522L23.9201 5.94227C24.0195 5.99705 24.1022 6.07601 24.1596 6.17117C24.2171 6.26633 24.2473 6.37433 24.2473 6.48427C24.2473 6.59421 24.2171 6.70221 24.1596 6.79737C24.1022 6.89253 24.0195 6.97149 23.9201 7.02628V7.02628Z" fill="#70191C"/>
</svg>
