<svg width="21" height="21" viewBox="0 0 21 21" fill="none" xmlns="http://www.w3.org/2000/svg">
<path d="M6.5 7.023H8.355L7.427 4.776L6.5 7.023Z" fill="#70191C"/>
<path d="M3.30273 0.514038C2.60654 0.514038 1.93886 0.7906 1.44658 1.28288C0.954296 1.77517 0.677734 2.44284 0.677734 3.13904V15.889C0.677734 17.339 1.85273 18.514 3.30273 18.514H9.93723C9.26808 17.4695 8.91332 16.2546 8.91523 15.014C8.91523 14.222 9.05673 13.4635 9.31623 12.762H3.30273C3.13697 12.762 2.978 12.6962 2.86079 12.579C2.74358 12.4618 2.67773 12.3028 2.67773 12.137C2.67773 11.9713 2.74358 11.8123 2.86079 11.6951C2.978 11.5779 3.13697 11.512 3.30273 11.512H9.93823C10.5258 10.5924 11.3356 9.8357 12.2928 9.31172C13.2501 8.78774 14.324 8.5134 15.4152 8.51404C16.6042 8.51404 17.7187 8.83354 18.6777 9.39104V3.13904C18.6777 1.68904 17.5027 0.514038 16.0527 0.514038H3.30273ZM2.67773 15.139C2.67773 14.794 2.95773 14.514 3.30273 14.514H7.30673C7.47249 14.514 7.63147 14.5799 7.74868 14.6971C7.86589 14.8143 7.93173 14.9733 7.93173 15.139C7.93173 15.3048 7.86589 15.4638 7.74868 15.581C7.63147 15.6982 7.47249 15.764 7.30673 15.764H3.30273C2.95773 15.764 2.67773 15.484 2.67773 15.139ZM7.42673 2.51304C7.67973 2.51304 7.90773 2.66554 8.00423 2.89954L10.3802 8.65254C10.4388 8.80477 10.4355 8.97385 10.371 9.12369C10.3066 9.27352 10.1862 9.39224 10.0354 9.4545C9.88469 9.51676 9.71558 9.51762 9.5642 9.4569C9.41283 9.39619 9.29118 9.27871 9.22523 9.12954L8.87123 8.27304H5.98373L5.63023 9.12954C5.60032 9.20736 5.55513 9.2784 5.49734 9.33849C5.43955 9.39858 5.37032 9.4465 5.29373 9.47943C5.21714 9.51236 5.13473 9.52964 5.05136 9.53024C4.968 9.53084 4.88535 9.51475 4.80829 9.48293C4.73123 9.4511 4.66132 9.40418 4.60267 9.34493C4.54402 9.28568 4.49782 9.21529 4.46678 9.13791C4.43575 9.06054 4.42051 8.97773 4.42196 8.89437C4.42341 8.81101 4.44152 8.72879 4.47523 8.65254L6.84873 2.89954C6.89597 2.78512 6.97612 2.6873 7.07903 2.61849C7.18193 2.54968 7.30295 2.51298 7.42673 2.51304ZM13.5517 2.51304C13.8967 2.51304 14.1767 2.79304 14.1767 3.13804V4.51404H15.5527C15.7185 4.51404 15.8775 4.57989 15.9947 4.6971C16.1119 4.81431 16.1777 4.97328 16.1777 5.13904C16.1777 5.3048 16.1119 5.46377 15.9947 5.58098C15.8775 5.69819 15.7185 5.76404 15.5527 5.76404H14.1767V7.13804C14.1767 7.3038 14.1109 7.46277 13.9937 7.57998C13.8765 7.69719 13.7175 7.76304 13.5517 7.76304C13.386 7.76304 13.227 7.69719 13.1098 7.57998C12.9926 7.46277 12.9267 7.3038 12.9267 7.13804V5.76404H11.5527C11.387 5.76404 11.228 5.69819 11.1108 5.58098C10.9936 5.46377 10.9277 5.3048 10.9277 5.13904C10.9277 4.97328 10.9936 4.81431 11.1108 4.6971C11.228 4.57989 11.387 4.51404 11.5527 4.51404H12.9267V3.13804C12.9267 2.79304 13.2067 2.51304 13.5517 2.51304V2.51304Z" fill="#70191C"/>
<path d="M20.916 15.014C20.916 18.0515 18.4535 20.514 15.416 20.514C12.3785 20.514 9.91602 18.0515 9.91602 15.014C9.91602 11.9765 12.3785 9.51404 15.416 9.51404C18.4535 9.51404 20.916 11.9765 20.916 15.014ZM15.916 11.514C15.916 11.3814 15.8633 11.2543 15.7696 11.1605C15.6758 11.0667 15.5486 11.014 15.416 11.014C15.2834 11.014 15.1562 11.0667 15.0625 11.1605C14.9687 11.2543 14.916 11.3814 14.916 11.514V14.514H11.916C11.7834 14.514 11.6562 14.5667 11.5625 14.6605C11.4687 14.7543 11.416 14.8814 11.416 15.014C11.416 15.1466 11.4687 15.2738 11.5625 15.3676C11.6562 15.4614 11.7834 15.514 11.916 15.514H14.916V18.514C14.916 18.6466 14.9687 18.7738 15.0625 18.8676C15.1562 18.9614 15.2834 19.014 15.416 19.014C15.5486 19.014 15.6758 18.9614 15.7696 18.8676C15.8633 18.7738 15.916 18.6466 15.916 18.514V15.514H18.916C19.0486 15.514 19.1758 15.4614 19.2696 15.3676C19.3633 15.2738 19.416 15.1466 19.416 15.014C19.416 14.8814 19.3633 14.7543 19.2696 14.6605C19.1758 14.5667 19.0486 14.514 18.916 14.514H15.916V11.514Z" fill="#70191C"/>
</svg>
